# xmcd
#
# Track frame offsets: 
#        150
#        4828
#        27498
#        53725
#        79300
#        102848
#        126343
#        127920
#        145075
#        145983
#        162960
#        179775
#        204600
#        206638
#        230743
#        253478
#
# Disc length: 3650 seconds
#
# Revision: 3
# Processed by: cddbd v1.5.1PL0 Copyright (c) Steve Scherf et al.
# Submitted via: ExactAudioCopy v0.95a4
#
DISCID=f40e4010
DTITLE=Ex-Girlfriend - X Marks The Spot
DYEAR=1991
DGENRE=R&B
TTITLE0=Exterlude~Intro(TheLesson)
TTITLE1=You(You'reTheOneForMe)
TTITLE2=Why Can't You Come Home
TTITLE3=Cold-Blooded
TTITLE4=With All My Heart
TTITLE5=SOS
TTITLE6=Exterlude(GiveMeAMan)
TTITLE7=Fellas In The Area
TTITLE8=Exterlude (BoyGoneCuckoo)
TTITLE9=Don't Knock On My Door
TTITLE10=I Found That Guy
TTITLE11=For All The Right Reasons
TTITLE12=Exterlude~The Man(AccordingToEx-Girlfriend)
TTITLE13=I Love My Man
TTITLE14=What I Will Do To You
TTITLE15=Searching To Find The One
EXTD=more info
EXTT0=
EXTT1=
EXTT2=
EXTT3=
EXTT4=
EXTT5=
EXTT6=
EXTT7=
EXTT8=
EXTT9=
EXTT10=
EXTT11=
EXTT12=
EXTT13=
EXTT14=
EXTT15=
PLAYORDER=
